<svg xmlns="http://www.w3.org/2000/svg" height="23" width="50" viewBox="0 0 640 512"><!--!Font Awesome Free 6.5.1 by @fontawesome - https://fontawesome.com License - https://fontawesome.com/license/free Copyright 2024 Fonticons, Inc.--><path opacity="1" fill="#e60022" d="M0 224v272c0 8.8 7.2 16 16 16h80V192H32c-17.7 0-32 14.3-32 32zm360-48h-24v-40c0-4.4-3.6-8-8-8h-16c-4.4 0-8 3.6-8 8v64c0 4.4 3.6 8 8 8h48c4.4 0 8-3.6 8-8v-16c0-4.4-3.6-8-8-8zm137.8-64l-160-106.7a32 32 0 0 0 -35.5 0l-160 106.7A32 32 0 0 0 128 138.7V512h128V368c0-8.8 7.2-16 16-16h96c8.8 0 16 7.2 16 16v144h128V138.7c0-10.7-5.4-20.7-14.3-26.6zM320 256c-44.2 0-80-35.8-80-80s35.8-80 80-80 80 35.8 80 80-35.8 80-80 80zm288-64h-64v320h80c8.8 0 16-7.2 16-16V224c0-17.7-14.3-32-32-32z"/></svg>